<svg xmlns="http://www.w3.org/2000/svg" viewBox="0 0 256 257" fill="none">
  <defs>
    <linearGradient id="vite-a" x1="24.4" y1="8.9" x2="169.4" y2="217.6" gradientUnits="userSpaceOnUse">
      <stop offset="0" stop-color="#41D1FF"/>
      <stop offset="1" stop-color="#BD34FE"/>
    </linearGradient>
    <linearGradient id="vite-b" x1="188.9" y1="27" x2="87" y2="209.8" gradientUnits="userSpaceOnUse">
      <stop offset="0" stop-color="#FFEA83"/>
      <stop offset=".08" stop-color="#FFDD35"/>
      <stop offset="1" stop-color="#FFA800"/>
    </linearGradient>
  </defs>
  <path d="M255.2 37.9 134 249.2c-2.3 4-8 4-10.3 0L1.2 37.9c-2.5-4.3 1.2-9.6 6.1-8.8l120.3 20.3a6 6 0 0 0 2 0L249.1 29c4.9-.8 8.6 4.5 6.1 8.9Z" fill="url(#vite-a)"/>
  <path d="m185.4 4.7-70 13a3 3 0 0 0-2.4 2.8l-4.3 71.3a3 3 0 0 0 3.7 3l19.5-4.6a3 3 0 0 1 3.7 3.3l-7.3 52.1a3 3 0 0 0 4 3.2l12.1-3.7a3 3 0 0 1 3.9 3.5l-9.2 43.6c-.6 2.7 2.7 4.5 4.6 2.4l1.3-1.5 70.4-140.5a3 3 0 0 0-3.3-4.2l-24.7 4.7a3 3 0 0 1-3.5-3.7l7.8-37.4a3 3 0 0 0-3.4-3.7Z" fill="url(#vite-b)"/>
</svg>
